<?xml version="1.0" encoding="UTF-8"?>
<svg xmlns="http://www.w3.org/2000/svg" viewBox="220 160 340 420" width="1200" height="1600" role="img">
  <defs>
    <linearGradient id="g" x1="0" y1="0" x2="1" y2="1">
      <stop offset="0%" stop-color="#3a1c2e"/>
      <stop offset="55%" stop-color="#542640"/>
      <stop offset="100%" stop-color="#3a1c2e"/>
    </linearGradient>
    
    <filter id="grain" x="-20%" y="-20%" width="140%" height="140%">
      <feTurbulence type="fractalNoise" baseFrequency="0.85" numOctaves="2" seed="3" result="n"/>
      <feColorMatrix type="saturate" values="0"/>
      <feComponentTransfer>
        <feFuncA type="table" tableValues="0 0.18"/>
      </feComponentTransfer>
      <feBlend in="SourceGraphic" mode="multiply"/>
    </filter>
    <radialGradient id="spot" cx="50%" cy="30%" r="70%">
      <stop offset="0%" stop-color="#ffffff" stop-opacity="0.18"/>
      <stop offset="100%" stop-color="#000000" stop-opacity="0.12"/>
    </radialGradient>
  </defs>
  <rect width="780" height="1200" fill="url(#g)"/>
  <rect width="780" height="1200" fill="url(#spot)"/>
  <rect width="780" height="1200" filter="url(#grain)" fill="#542640"/>
  <g fill="#24121c" fill-opacity="0.92" transform="translate(0,40)">
    <path d="M300 210 C300 168 338 140 390 140 C442 140 480 168 480 210 L492 390 C498 430 486 448 510 470 L560 720 C566 748 548 760 528 760 L500 760 L508 980 C510 1010 498 1040 390 1040 C282 1040 270 1010 272 980 L280 760 L252 760 C232 760 214 748 220 720 L270 470 C294 448 282 430 288 390 Z"/>
  </g>
</svg>